<svg width="125" height="125" viewBox="0 0 125 125" fill="none" xmlns="http://www.w3.org/2000/svg">
<path d="M13.1996 15.8125C12.2525 11.7208 11.4718 7.59166 10.6442 3.47083C17.2995 5.14999 24.1382 5.93332 30.9428 6.77916C38.4513 7.59582 45.9897 8.17082 53.5409 8.39582C57.0008 8.53332 60.465 8.59999 63.9334 8.54999C75.3754 8.61666 86.8302 7.87916 98.1698 6.36249C103.758 5.72082 109.258 4.53332 114.812 3.67499C114.036 7.86666 113.08 12.025 112.278 16.2083C110.853 16.5125 109.381 16.6417 107.999 17.1083C106.276 19.5208 104.77 22.0875 103.212 24.6083C102.21 24.6292 101.207 24.6333 100.205 24.6417C99.4454 24.65 98.686 24.6625 97.9309 24.675C96.8387 26.7208 95.6826 28.7375 94.5989 30.7875C94.0657 30.7917 93.5367 30.7958 93.0119 30.8C92.7474 30.8041 92.2227 30.8042 91.9624 30.8083C91.9624 33.0417 91.9667 35.2708 91.9539 37.5042C91.9539 38.0042 91.9539 38.5 91.9539 39C90.8063 39 89.6587 39 88.5111 38.9958C88.7158 40.3166 88.4727 41.875 89.1467 43.0333C91.395 43.2875 93.6689 43.0583 95.93 43.1125C98.814 43.1458 101.698 43.1041 104.578 43.1333C104.855 43.1458 105.401 43.1666 105.678 43.1791C105.742 44.5375 105.717 45.8916 105.7 47.25C105.29 47.2416 104.475 47.225 104.066 47.2166C104.061 47.475 104.044 47.9875 104.036 48.2458C103.985 50.6541 104.036 53.0666 104.006 55.4791C102.88 55.4666 101.753 55.4666 100.631 55.4666C97.0136 55.4625 93.3959 55.4875 89.7781 55.4458C89.953 60.8666 90.3797 66.275 90.5887 71.6916C90.6442 72.5416 90.6399 73.4083 90.8575 74.2416C91.8472 75.0541 93.0759 75.5125 94.2107 76.0958C93.7969 77.3625 93.3959 78.6333 92.9948 79.9083C92.3805 79.65 91.7662 79.3958 91.1561 79.1458C91.2329 81.75 91.4547 84.35 91.6681 86.95C91.7448 89.8541 91.9582 92.7541 92.1971 95.65C92.2269 96.6083 92.2738 97.5666 92.3336 98.525C92.3805 99.3083 92.4317 100.096 92.4786 100.883C91.4035 101.579 90.3071 102.246 89.2022 102.892C88.9761 98.6583 88.6817 94.425 88.4556 90.1875C88.1612 85.925 87.9479 81.6541 87.6578 77.3916C86.7832 77.0333 85.9385 76.5 84.9872 76.3958C84.1211 76.6291 83.3276 77.0458 82.5213 77.4083C82.6194 83.0583 82.7645 88.7083 82.8754 94.3583C82.9436 97.325 82.9991 100.296 83.0759 103.262C83.093 104.117 83.11 104.975 83.1271 105.833C81.9667 106.325 80.7892 106.783 79.6032 107.217C79.5563 105.329 79.5264 103.437 79.4283 101.55C79.3728 99.9083 79.3387 98.2666 79.2875 96.625C80.2559 96.1666 81.2926 95.8416 82.1928 95.2625C82.6408 94.1083 81.9112 92.8291 81.4249 91.775C80.9897 90.8125 79.8379 91.425 79.0998 91.6125C79.023 87.4291 78.8396 83.2458 78.7372 79.0625C78.0887 79.3333 77.436 79.6083 76.7875 79.8875C76.6083 79.1833 76.4291 78.4791 76.2542 77.7708C76.1177 77.1791 75.9556 76.5875 75.7636 76.0083C76.7406 75.525 77.7175 75.05 78.6988 74.575C78.6476 68.2166 78.4769 61.8625 78.3873 55.5083C77.8669 55.4833 77.3421 55.4583 76.8216 55.4291C76.0537 53.65 74.68 52.1791 72.9564 51.2375C74.7653 51.4333 76.587 51.3583 78.4044 51.3333C78.3916 49.9666 78.3873 48.6041 78.3788 47.2375C67.9479 47.2375 57.517 47.2416 47.0861 47.2375C47.0392 48.3833 46.9966 49.5291 46.9582 50.6791C44.5563 54.1041 45.3669 58.6125 43.1271 62.1166C43.4684 53.0916 43.6134 44.0583 43.7713 35.0292C44.9317 34.9708 46.0921 34.925 47.2483 34.8792C47.2483 33.5333 47.2525 32.1875 47.2568 30.8417C45.1791 30.8041 43.1015 30.8 41.0239 30.8042C39.6587 30.8042 38.2935 30.8083 36.9283 30.8333C36.9283 31.9125 36.9454 32.9958 36.8984 34.075C36.8856 34.2792 36.8558 34.6833 36.843 34.8875C38.0716 34.9083 39.3046 34.925 40.5332 34.9417C39.7611 47.4958 38.9163 60.0458 38.1655 72.6041C38.6689 72.425 39.1766 72.2458 39.68 72.0666C39.6928 73.4708 39.8464 74.8708 40.1109 76.25C39.279 76.8541 37.7133 77.0583 37.7559 78.3166C37.4402 82.3708 37.2952 86.4416 36.9923 90.5C36.8174 93.6791 36.6126 96.8583 36.4206 100.033C36.3737 100.796 36.331 101.558 36.3012 102.325C36.139 104.479 36.0452 106.642 35.8617 108.796C33.6092 109.521 33.1783 113.117 35.5375 113.987C35.5034 115.037 35.4522 116.083 35.4053 117.133C37.6663 117.137 39.936 117.196 42.1928 116.992L42.2867 117.092C42.2312 116.525 42.1715 115.958 42.116 115.392C43.2594 115.529 44.4027 115.679 45.546 115.842C45.546 116.267 45.546 116.692 45.5503 117.121C46.139 117.133 46.7235 117.146 47.3165 117.162C48.9931 118.904 51.4675 119.342 53.7756 119.704C54.3088 120.246 54.8464 120.787 55.4437 121.267C40.6783 121.221 25.9087 121.262 11.1433 121.246C11.1476 119.871 11.1476 118.5 11.139 117.125C18.0716 117.15 25.0042 117.125 31.9368 117.142C32.2099 114.062 32.1117 110.946 32.6962 107.904C32.5213 105.533 32.7943 103.167 32.9138 100.8C33.1783 96.2875 33.4513 91.775 33.7073 87.2625C33.8737 84.6583 34.0273 82.0541 34.1595 79.4458C33.5153 79.6375 32.8754 79.8291 32.2312 80.0208C31.8558 78.7666 31.4846 77.5083 31.1177 76.2541C32.2568 75.6916 33.3959 75.1291 34.5307 74.5625C34.9018 68.1916 35.3754 61.825 35.6911 55.45C31.9838 55.4833 28.2764 55.4666 24.5691 55.4666C23.5367 55.4666 22.5042 55.4666 21.4718 55.4666C21.4633 52.725 21.4675 49.9833 21.4675 47.2416C20.8873 47.2416 20.3071 47.2416 19.7312 47.2458C19.7312 46.375 19.7312 45.5042 19.7397 44.6333C19.744 44.125 19.7483 43.6125 19.7525 43.1041C21.3012 43.1208 22.8498 43.125 24.3984 43.125C26.0111 43.1291 27.6194 43.125 29.232 43.1166C31.6979 43.125 34.1681 43.1458 36.6339 43.0833C36.6553 41.7166 36.6766 40.35 36.6766 38.9875C35.6143 38.9916 34.552 38.9958 33.4897 38.9958C33.4812 38.4291 33.4769 37.8625 33.4769 37.3C33.494 35.1416 33.494 32.9833 33.4897 30.8292C33.2466 30.8208 32.7645 30.8083 32.5256 30.8042C31.9667 30.7875 31.4121 30.775 30.8575 30.7583C29.953 29.0583 29.0017 27.3833 28.0716 25.6958C27.8839 25.35 27.6962 25.0042 27.5085 24.6625C25.7764 24.6208 24.0401 24.6417 22.3037 24.6208C20.7423 22.1917 19.2576 19.7083 17.645 17.3083C16.4334 16.35 14.3131 16.9208 13.1996 15.8125ZM15.0682 8.62499C15.3711 9.92082 15.6996 11.2083 15.9428 12.5125C21.3737 13.4958 26.8472 14.3 32.3293 14.9708C37.6749 15.5417 43.0247 16.2292 48.4087 16.2667C52.9948 16.8875 57.6663 16.6083 62.2867 16.825C65.3071 16.7833 68.3276 16.6917 71.3481 16.65C74.0998 16.6 76.8387 16.375 79.5819 16.1958C81.9795 16.0583 84.3771 15.9042 86.7662 15.6333C94.3259 14.9375 101.843 13.8208 109.322 12.5333C109.633 11.2333 109.919 9.92916 110.188 8.62082C101.924 10.0875 93.6006 11.2208 85.2303 11.8917C82.8071 12.025 80.3882 12.2125 77.965 12.375C74.6331 12.4542 71.3054 12.6625 67.9693 12.65C64.7824 12.7417 61.5998 12.6792 58.4129 12.6417C43.8908 12.3625 29.3856 11.0458 15.0682 8.62499ZM22.3293 17.8458C22.8839 18.7375 23.4513 19.6208 24.0059 20.5125C25.7423 20.5292 27.4786 20.5167 29.215 20.5292C30.1749 22.3083 31.1988 24.0583 32.1501 25.8417L32.4018 25.8C31.8216 26.3583 32.8925 27.2875 33.4172 26.7083C38.75 26.625 44.0913 26.8042 49.4198 26.6208C58.1527 26.7292 66.8984 26.7625 75.6314 26.6042C80.6954 26.825 85.785 26.6167 90.8575 26.7042C91.6766 26.6458 92.9735 26.9708 93.1314 25.8292C94.1211 24.0667 95.1152 22.3042 96.0836 20.5292C97.3506 20.525 98.622 20.5208 99.889 20.5125C100.226 20.5167 100.9 20.5292 101.237 20.5375C101.826 19.6583 102.398 18.7708 102.952 17.875C101.898 18 100.845 18.15 99.7909 18.2875C97.4786 18.6 95.1621 18.9 92.8498 19.2167C91.3097 19.3583 89.7696 19.5042 88.2295 19.6833C85.8105 19.8917 83.3959 20.1625 80.9727 20.3042C70.2602 21.0083 59.5051 21.0958 48.7798 20.5375C45.4095 20.3333 42.0435 20.1083 38.6774 19.8375C33.2167 19.2917 27.7687 18.6083 22.3293 17.8458ZM50.5119 39C49.3856 39.0042 48.2551 39 47.1288 38.9958C47.0904 40.375 47.0819 41.7583 47.0861 43.1416C49.9957 43.1208 52.9053 43.1083 55.8148 43.1541C55.9172 39.0416 55.8361 34.9291 55.8617 30.8167C54.0913 30.8083 52.3251 30.8042 50.5588 30.7917C50.4906 33.5292 50.5503 36.2625 50.5119 39ZM59.3003 30.8125C59.3259 34.9291 59.2363 39.0458 59.3558 43.1625C61.5998 43.1083 63.8481 43.1125 66.0964 43.1541C66.2756 39.0458 66.1433 34.925 66.1732 30.8125C63.8822 30.8041 61.5913 30.8041 59.3003 30.8125ZM69.616 30.8208C69.6075 34.9083 69.6501 38.9916 69.5904 43.075C72.4616 43.1708 75.3327 43.1125 78.2039 43.1166C78.2039 41.7542 78.2039 40.3875 78.1954 39.025C77.0563 39.0167 75.9172 39.0125 74.7781 39.0083C74.7525 36.2792 74.7739 33.55 74.7611 30.8167C73.046 30.8 71.331 30.8042 69.616 30.8208ZM78.1868 30.8542C78.1996 32.1958 78.2039 33.5333 78.2082 34.875C79.3728 34.9083 80.5418 34.9542 81.7065 35.0333C81.843 47.6666 82.0819 60.3 82.3848 72.9291C83.2252 72.5375 84.0571 72.1166 84.9445 71.8333C85.7636 71.975 86.523 72.3208 87.2995 72.6C86.5401 60.0458 85.7082 47.5 84.9146 34.95C86.2414 34.9375 87.564 34.9125 88.8865 34.8083C88.7884 34.6917 88.5879 34.4542 88.4855 34.3333C88.5239 33.175 88.5324 32.0125 88.5409 30.85C87.0819 30.7917 85.6143 30.7792 84.1553 30.875C82.1715 30.6833 80.1749 30.8375 78.1868 30.8542ZM89.0486 47.2708C89.1595 48.6 89.2619 49.9291 89.343 51.2583C92.7773 51.45 96.2201 51.3416 99.6544 51.325C99.9573 51.3583 100.26 51.3916 100.563 51.4291C100.58 50.0333 100.58 48.6375 100.572 47.2458C99.7568 47.2416 98.9419 47.2375 98.1271 47.2333C95.1023 47.2583 92.0776 47.2041 89.0486 47.2708ZM24.9061 47.2416C24.9061 48.7 24.8549 50.1625 25 51.6208L25.4181 51.2375C28.8865 51.425 32.3805 51.4208 35.8447 51.2791C36.4505 50.1625 36.0665 48.5583 36.25 47.2666C33.1868 47.2166 30.1194 47.2541 27.0563 47.2375C26.3396 47.2375 25.6228 47.2375 24.9061 47.2416Z" fill="#EACE3F"/>
<path d="M56.796 51.3375C59.5179 51.3292 62.244 51.45 64.9615 51.2833C62.9906 52.2458 61.5656 53.9375 60.5716 55.8208C59.5435 55.375 58.5238 54.9042 57.5127 54.4167C57.3208 53.3792 57.1331 52.3375 56.796 51.3375Z" fill="#EACE3F"/>
<path d="M53.8096 54.1958C54.586 54.5917 55.3412 55.0333 56.0579 55.5209C55.6355 55.4959 54.7908 55.4417 54.3685 55.4125C54.1509 55.0208 53.9888 54.6042 53.8096 54.1958Z" fill="#EACE3F"/>
<path d="M43.8822 77.9042C44.1893 76.1167 45.162 74.5 46.3651 73.1417C46.3822 73.5 46.4163 74.2167 46.4291 74.575C47.4018 75.1083 48.3702 75.65 49.3387 76.1958C47.3293 79.1583 45.418 82.2208 44.0528 85.5292C43.2977 87.3958 45.1236 88.8292 46.203 90.1125C45.7721 91.2208 45.3284 92.3292 44.8762 93.4333C44.0912 93.1667 43.3062 92.9042 42.5212 92.6416C42.8327 89.1333 42.7047 85.6083 42.8711 82.0958C43.9035 80.9125 43.6049 79.3208 43.8822 77.9042Z" fill="#EACE3F"/>
<path d="M43.5494 94.5709C44.3685 94.9209 45.1876 95.275 46.0067 95.6292C46.0067 95.7959 46.011 96.1292 46.011 96.2959C45.994 98.9375 45.7849 101.579 45.8958 104.217C44.4795 101.192 43.7201 97.8917 43.5494 94.5709Z" fill="#EACE3F"/>
<path d="M42.2483 109.787C42.3251 106.321 42.4147 102.858 42.4957 99.3958C43.302 102.246 44.3003 105.05 45.6911 107.679C45.7082 107.946 45.738 108.483 45.7551 108.75C45.6826 109.108 45.5418 109.821 45.4693 110.179C44.3985 110.017 43.3191 109.925 42.2483 109.787Z" fill="#EACE3F"/>
<path d="M89.4668 106.337C90.5547 105.704 91.6468 105.083 92.7688 104.504C92.7645 105.117 92.7731 105.725 92.7944 106.337C91.7279 106.958 90.6272 107.521 89.5052 108.038C89.4924 107.471 89.4796 106.904 89.4668 106.337Z" fill="#EACE3F"/>
<path d="M89.6118 109.85C90.6357 109.333 91.651 108.788 92.6237 108.183C92.6792 108.379 92.7901 108.771 92.8456 108.967C93.3618 111.646 93.2551 114.408 93.5111 117.121C100.452 117.154 107.393 117.129 114.33 117.133C114.334 118.504 114.334 119.875 114.334 121.25C95.5631 121.254 76.7918 121.237 58.0248 121.254C59.4113 120.383 59.4326 118.729 59.5052 117.292C61.105 117.229 62.7005 117.137 64.3004 117.037C66.1988 117.108 68.1016 117.154 70 117.129C73.3106 117.142 76.6169 117.133 79.9232 117.137C80.0256 116.012 80.128 114.887 80.1536 113.758C81.1988 113.387 82.244 113.004 83.2807 112.612C83.2978 114.121 83.3362 115.629 83.3788 117.133C85.6101 117.137 87.8413 117.133 90.0768 117.137C90 115.758 89.9104 114.383 89.8166 113.008C89.7483 111.954 89.6843 110.9 89.6118 109.85Z" fill="#EACE3F"/>
<path d="M79.7482 110.546C80.8105 109.921 82.0605 109.692 83.191 109.2C83.2124 109.771 83.238 110.346 83.2635 110.921C82.1202 111.363 80.9726 111.796 79.825 112.217C79.7909 111.867 79.7226 111.167 79.6927 110.817L79.7482 110.546Z" fill="#EACE3F"/>
<path d="M42.2099 111.388C42.9864 111.488 43.7628 111.596 44.5435 111.704C44.0188 112.733 43.7842 114.412 42.1801 113.862C42.1886 113.038 42.2014 112.213 42.2099 111.388Z" fill="#EACE3F"/>
<path d="M50.0597 117.117C51.3182 117.15 52.5725 117.138 53.831 117.138C53.831 117.363 53.831 117.817 53.831 118.046C52.5341 117.921 51.2244 117.733 50.0597 117.117Z" fill="#EACE3F"/>
<path d="M53.541 8.39583C55.6016 6.9875 57.7816 5.74583 59.9531 4.50833C61.2202 5.90833 62.5896 7.21667 63.9335 8.55C60.4651 8.6 57.0009 8.53333 53.541 8.39583Z" fill="#F70000"/>
<path d="M34.4284 11.5458C36.2757 11.5167 37.9566 12.3333 39.6759 12.8833C42.6452 13.8625 45.5505 15.0167 48.4088 16.2667C43.0249 16.2292 37.675 15.5417 32.3295 14.9708C33.0761 13.8583 33.8312 12.7458 34.4284 11.5458Z" fill="#F70000"/>
<path d="M77.965 12.375C80.3882 12.2125 82.8071 12.025 85.2303 11.8917C85.7508 13.1333 86.2628 14.3833 86.7662 15.6333C84.3771 15.9042 81.9795 16.0583 79.5819 16.1958C79.0529 14.9208 78.511 13.6458 77.965 12.375Z" fill="#F70000"/>
<path d="M58.4131 12.6417C61.5999 12.6792 64.7825 12.7417 67.9694 12.65C69.1639 13.9292 70.2476 15.2958 71.3483 16.65C68.3278 16.6917 65.3073 16.7833 62.2868 16.825C61.0581 15.375 59.7569 13.9917 58.4131 12.6417Z" fill="#F70000"/>
<path d="M92.8499 19.2166C95.1622 18.9 97.4787 18.6 99.791 18.2875C99.8252 19.0291 99.855 19.7708 99.8891 20.5125C98.6221 20.5208 97.3508 20.525 96.0837 20.5291C95.1153 22.3041 94.1212 24.0666 93.1315 25.8291C93.2851 23.6208 93.0078 21.4166 92.8499 19.2166Z" fill="#F70000"/>
<path d="M38.6775 19.8375C42.0435 20.1083 45.4096 20.3333 48.7799 20.5375C48.1271 21.5 47.4744 22.4625 46.826 23.4333C44.1382 22.1833 41.5444 20.675 38.6775 19.8375Z" fill="#F70000"/>
<path d="M80.9729 20.3042C83.3961 20.1625 85.8108 19.8917 88.2297 19.6833C88.6436 21.2084 89.0318 22.7375 89.4243 24.2667C87.0096 24.5584 84.5992 24.8709 82.1845 25.1584C81.7707 23.5417 81.3739 21.9209 80.9729 20.3042Z" fill="#F70000"/>
<path d="M49.4199 26.6208C57.8457 23.7792 67.2058 23.6917 75.6315 26.6042C66.8986 26.7625 58.1529 26.7292 49.4199 26.6208Z" fill="#F70000"/>
<path d="M97.931 24.675C98.6861 24.6625 99.4455 24.65 100.205 24.6417C100.397 27.8042 100.265 30.9708 100.056 34.1292C97.658 33.675 95.2603 33.2542 92.8627 32.8C92.9097 32.1333 92.9566 31.4667 93.0121 30.8C93.5368 30.7958 94.0658 30.7917 94.5991 30.7875C95.6827 28.7375 96.8388 26.7208 97.931 24.675Z" fill="#F70000"/>
<path d="M16.1988 26.3667C20.1621 26.2208 24.1041 25.7333 28.0717 25.6958C29.0017 27.3833 29.9531 29.0583 30.8575 30.7583C31.4121 30.775 31.9667 30.7875 32.5256 30.8042C32.419 31.5083 32.3123 32.2167 32.2099 32.925C26.4718 32.3958 20.6997 32.7125 15 33.4625C15.3626 31.0917 15.7935 28.7292 16.1988 26.3667Z" fill="#F70000"/>
<path d="M32.402 25.8C32.9993 25.5167 33.6989 26.0834 33.4174 26.7084C32.8926 27.2875 31.8218 26.3584 32.402 25.8Z" fill="#F70000"/>
<path d="M41.0239 30.8042C43.1016 30.8 45.1792 30.8042 47.2569 30.8417C47.2526 32.1875 47.2483 33.5334 47.2483 34.8792C46.0922 34.925 44.9318 34.9709 43.7714 35.0292C43.6135 44.0584 43.4685 53.0917 43.1272 62.1167C41.2714 65.1459 39.7483 68.475 39.6801 72.0667C39.1766 72.2459 38.669 72.425 38.1655 72.6042C38.9164 60.0459 39.7611 47.4959 40.5333 34.9417C39.3046 34.925 38.0717 34.9084 36.843 34.8875C36.8558 34.6834 36.8857 34.2792 36.8985 34.075C38.1058 32.7959 39.6161 31.8459 41.0239 30.8042Z" fill="#F70000"/>
<path d="M50.5121 39C50.5505 36.2625 50.4908 33.5292 50.559 30.7917C52.3252 30.8042 54.0914 30.8083 55.8619 30.8167C55.8363 34.9292 55.9174 39.0417 55.815 43.1542C52.9054 43.1083 49.9959 43.1208 47.0863 43.1417C47.0821 41.7583 47.0906 40.375 47.129 38.9958C48.2553 39 49.3858 39.0042 50.5121 39Z" fill="#F70000"/>
<path d="M59.3004 30.8125C61.5914 30.8042 63.8824 30.8042 66.1733 30.8125C66.1435 34.925 66.2757 39.0458 66.0965 43.1542C63.8482 43.1125 61.5999 43.1083 59.3559 43.1625C59.2365 39.0458 59.326 34.9292 59.3004 30.8125Z" fill="#F70000"/>
<path d="M69.6162 30.8208C71.3312 30.8041 73.0462 30.8 74.7612 30.8166C74.774 33.55 74.7527 36.2791 74.7783 39.0083C75.9174 39.0125 77.0564 39.0166 78.1955 39.025C78.2041 40.3875 78.2041 41.7541 78.2041 43.1167C75.3329 43.1125 72.4617 43.1708 69.5906 43.075C69.6503 38.9916 69.6076 34.9083 69.6162 30.8208Z" fill="#F70000"/>
<path d="M78.187 30.8542C80.1751 30.8375 82.1717 30.6833 84.1555 30.875C85.687 31.9083 87.2698 32.9333 88.4857 34.3333C88.5881 34.4542 88.7886 34.6917 88.8867 34.8083C87.5642 34.9125 86.2416 34.9375 84.9148 34.95C85.7084 47.5 86.5403 60.0458 87.2997 72.6C86.5232 72.3208 85.7638 71.975 84.9447 71.8333C84.0573 72.1167 83.2254 72.5375 82.385 72.9292C82.0821 60.3 81.8432 47.6667 81.7066 35.0333C80.542 34.9542 79.373 34.9083 78.2083 34.875C78.2041 33.5333 78.1998 32.1958 78.187 30.8542Z" fill="#F70000"/>
<path d="M104.578 43.1334C106.434 39.4584 107.696 35.5459 109.002 31.6667C111.015 33.0459 113.106 34.3167 115.115 35.7084C112.991 40.9167 111.293 46.3125 108.464 51.225C106.98 50.2417 105.499 49.2542 104.036 48.2459C104.044 47.9875 104.061 47.475 104.066 47.2167C104.475 47.225 105.29 47.2417 105.7 47.25C105.717 45.8917 105.742 44.5375 105.678 43.1792C105.401 43.1667 104.855 43.1459 104.578 43.1334Z" fill="#F70000"/>
<path d="M7.18433 42C12.5427 39.9584 17.8029 37.5875 23.4471 36.3667C23.7586 38.6209 24.1084 40.8709 24.3985 43.125C22.8499 43.125 21.3012 43.1209 19.7526 43.1042C19.7483 43.6125 19.7441 44.125 19.7398 44.6334C15.7978 45.7959 12.0137 47.3875 8.27648 49.0667C7.87972 46.7167 7.56402 44.3542 7.18433 42Z" fill="#F70000"/>
<path d="M29.2322 43.1167C30.4267 41.0292 31.9412 39.15 33.4771 37.3C33.4771 37.8625 33.4813 38.4292 33.4899 38.9958C34.5521 38.9958 35.6144 38.9917 36.6767 38.9875C36.6767 40.35 36.6554 41.7167 36.6341 43.0833C34.1682 43.1458 31.698 43.125 29.2322 43.1167Z" fill="#F70000"/>
<path d="M91.9539 39C91.9539 38.5 91.9539 38.0042 91.9539 37.5042C93.3149 39.3542 94.8166 41.1042 95.9301 43.1125C93.669 43.0583 91.3951 43.2875 89.1468 43.0333C88.4727 41.875 88.7159 40.3167 88.5111 38.9958C89.6587 39 90.8063 39 91.9539 39Z" fill="#F70000"/>
<path d="M47.0864 47.2375C57.5173 47.2417 67.9481 47.2375 78.379 47.2375C78.3876 48.6042 78.3918 49.9666 78.4046 51.3333C76.5872 51.3583 74.7655 51.4333 72.9567 51.2375C70.3841 50.2541 67.5258 50.3125 64.9618 51.2833C62.2442 51.45 59.5181 51.3291 56.7963 51.3375C55.6103 49.6916 53.78 48.3167 51.6256 48.3708C49.7613 48.2542 48.1316 49.3625 46.9584 50.6791C46.9968 49.5291 47.0394 48.3833 47.0864 47.2375Z" fill="#F70000"/>
<path d="M89.0486 47.2708C92.0777 47.2041 95.1024 47.2583 98.1272 47.2333C98.6476 48.5916 99.151 49.9583 99.6545 51.325C96.2202 51.3417 92.7773 51.45 89.343 51.2583C89.262 49.9291 89.1596 48.6 89.0486 47.2708Z" fill="#F70000"/>
<path d="M27.0564 47.2375C30.1196 47.2542 33.187 47.2167 36.2501 47.2667C36.0667 48.5583 36.4506 50.1625 35.8448 51.2792C32.3807 51.4208 28.8866 51.425 25.4182 51.2375C26.0752 49.95 26.5232 48.575 27.0564 47.2375Z" fill="#F70000"/>
<path d="M117.658 52.8666C119.032 54.8541 120.324 56.8958 121.583 58.9583C120.316 60.1583 119.049 61.3583 117.867 62.6416C115.188 65.5166 112.172 68.075 109.019 70.4458C107.743 68.4333 106.519 66.3875 105.188 64.4083C109.851 61.1125 113.878 57.0833 117.658 52.8666Z" fill="#F70000"/>
<path d="M7.90537 61.0917C10.4054 58.45 13.2424 56.15 16.1136 53.9125C17.4062 55.9417 18.6818 57.9834 19.9617 60.025C17.1289 62.0292 14.4668 64.2625 12.0095 66.6917C10.4822 68.2958 9.02738 69.9667 7.44035 71.5125C6.14342 69.4875 4.83796 67.4708 3.55383 65.4375C5.02141 64 6.51458 62.5917 7.90537 61.0917Z" fill="#F70000"/>
<path d="M24.5692 55.4667C28.2766 55.4667 31.9839 55.4833 35.6913 55.45C35.3756 61.825 34.902 68.1917 34.5308 74.5625C33.396 75.1292 32.257 75.6917 31.1179 76.2542C31.4848 77.5083 31.8559 78.7667 32.2314 80.0208C32.8756 79.8292 33.5155 79.6375 34.1597 79.4458C34.0274 82.0542 33.8738 84.6583 33.7075 87.2625C25.8491 78.8083 22.3764 66.6792 24.5692 55.4667Z" fill="#F70000"/>
<path d="M54.3687 55.4125C54.791 55.4417 55.6357 55.4958 56.0581 55.5208C57.4787 56.0333 58.7543 56.8667 60.1238 57.4917C60.0854 57.8375 60.0086 58.5333 59.9745 58.8792C58.1101 57.7208 56.0623 56.8167 54.3687 55.4125Z" fill="#F70000"/>
<path d="M76.8217 55.4292C77.3422 55.4584 77.8669 55.4834 78.3874 55.5084C78.477 61.8625 78.6476 68.2167 78.6988 74.575C77.7176 75.05 76.7406 75.525 75.7636 76.0084C75.0555 75.0084 74.2705 74.0667 73.4983 73.1125C74.3515 72.2334 75.1834 71.2917 75.5973 70.1334C76.8089 67.0292 77.4147 63.7209 77.5896 60.4125C77.6877 58.7209 77.436 57.0167 76.8217 55.4292Z" fill="#F70000"/>
<path d="M89.7782 55.4458C93.396 55.4875 97.0137 55.4625 100.631 55.4667C102.684 66.55 99.4668 78.5792 91.6681 86.95C91.4548 84.35 91.233 81.75 91.1562 79.1458C91.7663 79.3958 92.3806 79.65 92.9949 79.9083C93.396 78.6333 93.797 77.3625 94.2108 76.0958C93.076 75.5125 91.8473 75.0542 90.8576 74.2417C90.64 73.4083 90.6442 72.5417 90.5888 71.6917C90.3797 66.275 89.9531 60.8667 89.7782 55.4458Z" fill="#F70000"/>
<path d="M56.327 58.5458C57.786 59.4833 59.5352 60.2417 60.3799 61.8292C61.3184 63.4542 62.3381 65.0292 63.3876 66.5875C63.1358 67.2458 62.8841 67.9042 62.6282 68.5625C62.1248 68.6958 61.6341 68.8542 61.1478 69.0292C60.6913 69.8083 60.5249 70.7167 60.0514 71.4875C58.8995 72.5292 57.4788 73.2375 56.2075 74.1333C55.2988 73.1167 54.0659 71.8083 52.53 72.4833C51.1094 73.3708 50.3116 74.9 49.3389 76.1958C48.3705 75.65 47.402 75.1083 46.4294 74.575C46.4166 74.2166 46.3824 73.5 46.3654 73.1416C50.5505 68.9167 54.0787 64.0208 56.327 58.5458Z" fill="#F70000"/>
<path d="M70.3455 59.4958C72.1885 59.0417 74.1211 59.3958 75.9812 59.5875C75.8618 61.1875 75.721 62.7917 75.465 64.375C75.0853 64.4167 74.3302 64.5042 73.9548 64.5458C73.9932 65.3292 74.5606 65.8417 75.128 66.3167C74.6715 67.875 74.2449 69.4708 73.4087 70.8875C73.0333 71.7208 71.9923 71.4292 71.2585 71.475C69.8336 71.5167 68.831 70.375 67.9564 69.4375C66.8899 68.3292 66.9112 66.7333 66.6083 65.3333C65.6314 65.1875 64.2448 65.5292 63.7585 64.4167C63.4214 63.5 63.6348 61.9958 64.8592 61.8917C65.8745 62.1917 66.2457 63.3417 66.9752 64.0167C68.8097 63.1458 68.2636 60.2167 70.3455 59.4958ZM70.5418 64.3458C69.2576 65.475 71.988 66.6625 72.436 65.4083C72.7218 64.3583 71.2798 64.1375 70.5418 64.3458Z" fill="#F70000"/>
<path d="M63.9976 69.7792C64.3005 68.7042 64.6674 67.6417 65.0599 66.5958C65.3116 67.5167 65.4865 68.475 65.9174 69.3417C66.6085 70.5333 67.9182 71.3041 68.3705 72.6458C66.8346 71.8083 65.5121 70.65 63.9976 69.7792Z" fill="#F70000"/>
<path d="M63.7117 71.5208C65.5376 72.6 67.2569 73.9208 68.4813 75.6458C68.3789 75.875 68.1742 76.3292 68.0718 76.5583C66.6554 75.2125 65.1878 73.9125 63.5752 72.7916C63.6093 72.475 63.6776 71.8416 63.7117 71.5208Z" fill="#F70000"/>
<path d="M10.1154 88.6916C12.0693 83.4291 13.9166 78.0999 16.6981 73.1791C18.7374 74.4791 20.7297 75.8458 22.7519 77.1666C19.902 82.0541 17.8159 87.3166 16.1776 92.7C14.1683 91.3458 12.0735 90.1083 10.1154 88.6916Z" fill="#F70000"/>
<path d="M58.8012 76.5833C59.8976 75.575 61.1177 74.7041 62.3848 73.9083C64.1382 75.225 66.1092 76.4791 67.2824 78.3458C68.5622 83.0041 69.6587 87.7375 71.5017 92.2333C72.4999 94.2125 71.4803 96.475 70.0255 97.9458C69.6331 98.4083 68.8907 98.8083 68.2977 98.4416C65.7167 96.9166 62.5938 97.8166 59.7525 97.5708C59.6032 95.4875 57.8541 93.4125 59.0273 91.3666C60.3114 88.7625 61.6595 86.1916 62.8924 83.5666C63.5665 82.0666 63.9121 80.0541 62.7474 78.7041C61.5699 77.775 60.0853 77.3416 58.8012 76.5833Z" fill="#F70000"/>
<path d="M100.721 80.9208C106.331 79.75 111.694 77.6708 116.877 75.3083C117.253 77.6791 117.624 80.05 117.952 82.4291C112.56 84.375 107.342 86.8333 101.685 88C101.378 85.6375 101.032 83.2833 100.721 80.9208Z" fill="#F70000"/>
<path d="M37.756 78.3167C37.7133 77.0583 39.279 76.8542 40.1109 76.25C40.6015 78.3625 41.4761 80.4 42.8712 82.0958C42.7048 85.6083 42.8328 89.1333 42.5213 92.6416C42.2867 93.1125 42.0563 93.5916 41.8601 94.0875C40.1578 92.9958 38.5324 91.7958 36.9923 90.5C37.2952 86.4416 37.4403 82.3708 37.756 78.3167Z" fill="#F70000"/>
<path d="M55.593 76.1083C56.9454 77.1542 58.2893 78.2417 59.8848 78.925C60.5248 79.2875 61.3396 79.4875 61.7833 80.1125C61.6425 81.025 61.0154 81.7708 60.5973 82.5708C58.3319 82.4125 55.4437 82.1791 54.2321 79.9917C53.4429 78.525 54.919 77.2917 55.593 76.1083ZM58.0717 79.7167C57.3763 79.9 57.7347 81.2833 58.5111 81.1292C59.8678 81.4667 59.343 78.8083 58.0717 79.7167Z" fill="#F70000"/>
<path d="M82.5215 77.4083C83.3278 77.0458 84.1213 76.6291 84.9874 76.3958C85.9387 76.4999 86.7834 77.0333 87.658 77.3916C87.9481 81.6541 88.1614 85.9249 88.4558 90.1875C86.7536 91.7666 84.8338 93.1 82.8756 94.3583C82.7647 88.7083 82.6196 83.0583 82.5215 77.4083Z" fill="#F70000"/>
<path d="M76.2543 77.7708C76.4292 78.4791 76.6084 79.1833 76.7876 79.8875C77.4361 79.6083 78.0888 79.3333 78.7372 79.0625C78.8396 83.2458 79.0231 87.4291 79.0999 91.6125C77.1801 92.3541 75.3371 93.2875 73.6349 94.4375C73.0163 90.8583 71.3012 87.5791 70.4523 84.05C72.1716 81.7666 74.535 80.0458 76.2543 77.7708Z" fill="#F70000"/>
<path d="M51.3951 85.2417C50.3072 83.9208 51.425 82.2417 52.4019 81.2125C54.5222 82.7625 56.9241 83.9583 59.6161 84.1292C59.0658 85.125 58.4941 86.1125 57.9267 87.1C55.6827 87.0708 52.9949 87.0292 51.3951 85.2417ZM54.6033 84.7458C54.7654 85.1 54.9446 85.4458 55.1366 85.7833C55.8618 86.2833 56.8516 85.3208 56.2245 84.6458C55.768 84.0667 55.1323 84.6375 54.6033 84.7458Z" fill="#F70000"/>
<path d="M48.797 89.8416C47.6238 88.7875 48.6562 87.1375 49.4625 86.1916C51.6852 87.6375 54.1852 88.7 56.9028 88.7166C56.2373 89.7458 55.896 91.2375 54.6332 91.725C52.6025 91.5625 50.4054 91.1375 48.797 89.8416ZM52.5044 89.9666C52.2697 90.8125 53.5794 90.5458 54.0658 90.6916C53.9847 90.1791 53.9122 89.6708 53.7757 89.175C53.1869 89.2166 52.3038 89.1125 52.5044 89.9666Z" fill="#F70000"/>
<path d="M25.0939 90.25C27.4872 90.7084 29.8849 91.1209 32.2825 91.5625C32.0393 94.5042 31.8516 97.4584 31.9796 100.417C32.0137 103.125 32.5384 105.8 32.5342 108.513C30.2304 107.713 27.756 107.625 25.3968 107.046C25.1451 101.45 24.5436 95.85 25.0939 90.25Z" fill="#F70000"/>
<path d="M106.254 91.3458C107.551 91.1916 108.848 91.0458 110.149 90.9125C109.783 93.2791 109.33 95.6333 108.976 98C107.837 98.0583 106.702 98.1208 105.563 98.1708C106.195 95.95 106.276 93.6333 106.254 91.3458Z" fill="#F70000"/>
<path d="M92.9865 91.4375C96.4037 91.7333 99.838 91.8083 103.264 91.6042C101.045 94.1583 98.5283 96.4541 95.8448 98.5375C94.6759 98.6291 93.5027 98.5625 92.3337 98.525C92.274 97.5666 92.2271 96.6083 92.1972 95.65C92.466 94.2458 92.7475 92.8458 92.9865 91.4375Z" fill="#F70000"/>
<path d="M102.21 95.2083C102.888 94.1667 103.882 93.3708 104.783 92.5208C104.625 94.5625 104.552 96.7083 103.515 98.55L103.14 98.4792C102.474 98.3459 101.796 98.3 101.135 98.1459L101.229 97.9625C101.852 97.1583 101.924 96.1417 102.21 95.2083Z" fill="#F70000"/>
<path d="M47.3678 94.3833C48.4002 92.7417 50.4053 93.7625 51.89 94C51.3738 94.9 50.8704 95.8042 50.3627 96.7083C49.3729 95.9208 48.2296 95.3042 47.3678 94.3833Z" fill="#F70000"/>
<path d="M51.5316 98.3417C51.8772 96.9125 52.6878 95.6667 53.541 94.4834C54.1852 95.4584 54.7995 96.45 55.3499 97.4834C54.7398 97.9292 54.1425 98.3875 53.5581 98.8625C52.884 98.6917 52.2057 98.5209 51.5316 98.3417Z" fill="#F70000"/>
<path d="M46.0068 95.6292C46.9539 96.1708 47.8669 96.775 48.6732 97.5042C47.7901 97.0958 46.8857 96.725 46.0111 96.2958C46.0111 96.1292 46.0068 95.7958 46.0068 95.6292Z" fill="#F70000"/>
<path d="M42.2697 97.9083C42.338 98.4042 42.419 98.9 42.4958 99.3958C42.4147 102.858 42.3252 106.321 42.2484 109.788C41.0069 109.617 39.774 109.392 38.5368 109.175C37.6835 106.929 36.89 104.654 36.3013 102.325C36.3311 101.558 36.3738 100.796 36.4207 100.033C38.4173 99.7833 40.4139 99.5458 42.4105 99.3C42.3764 98.95 42.3038 98.2583 42.2697 97.9083Z" fill="#F70000"/>
<path d="M58.8311 99.2125C61.3951 99.0375 63.9676 99.1708 66.5359 99.1666C66.6767 99.3166 66.9625 99.6083 67.1033 99.7541C64.3004 99.9125 61.4889 100.046 58.6903 99.7541C58.7244 99.6208 58.797 99.35 58.8311 99.2125Z" fill="#F70000"/>
<path d="M76.6809 103.458C77.2526 102.579 77.8328 101.712 78.4216 100.85C78.6733 101.025 79.1767 101.375 79.4284 101.55C79.5265 103.437 79.5564 105.329 79.6033 107.217C78.7159 107.533 77.8157 107.821 76.9113 108.1C76.2885 107.808 75.6656 107.517 75.047 107.221C75.7168 106.892 76.5402 106.712 77.0308 106.121C77.082 105.221 76.8729 104.333 76.6809 103.458Z" fill="#F70000"/>
<path d="M83.0759 103.262C84.1681 103.712 85.2474 104.283 86.459 104.358C85.3541 104.867 84.2406 105.354 83.1271 105.833C83.1101 104.975 83.093 104.117 83.0759 103.262Z" fill="#F70000"/>
<path d="M57.2527 105.738C58.6648 105.763 60.0812 105.867 61.4976 105.854C61.8773 106.338 62.2612 106.825 62.6494 107.308C62.6494 107.867 62.5598 108.454 62.739 109C63.2766 109.092 63.8184 109.167 64.3645 109.225C64.7911 109.679 65.222 110.129 65.6571 110.579C63.6179 110.85 61.5658 110.996 59.5138 111.121C59.4157 110.246 59.4413 109.338 59.1426 108.5C58.4472 107.613 57.4361 106.921 57.2527 105.738Z" fill="#F70000"/>
<path d="M83.1913 109.2C85.3244 108.333 87.4276 107.392 89.4668 106.337C89.4796 106.904 89.4924 107.471 89.5052 108.037L89.5095 108.179C87.4489 109.142 85.3969 110.125 83.2638 110.921C83.2382 110.346 83.2126 109.771 83.1913 109.2Z" fill="#F70000"/>
<path d="M92.6237 108.183C93.0716 107.883 93.5281 107.604 94.0102 107.362C94.1424 107.962 93.5452 109.062 92.8455 108.967C92.79 108.771 92.6791 108.379 92.6237 108.183Z" fill="#F70000"/>
<path d="M45.7552 108.75C46.0965 109.233 46.4676 109.746 46.5018 110.354C46.2415 110.313 45.7253 110.225 45.4694 110.179C45.5419 109.821 45.6827 109.108 45.7552 108.75Z" fill="#F70000"/>
<path d="M55.7424 109.2C55.768 109.033 55.8107 108.704 55.832 108.538C56.2757 108.596 57.1673 108.708 57.611 108.763C58.2296 109.938 57.8499 111.342 57.9352 112.613C57.1759 111.763 56.4207 110.904 55.6486 110.063C55.6742 109.85 55.7211 109.417 55.7424 109.2Z" fill="#F70000"/>
<path d="M85.8533 111.587C87.1161 111.029 88.3746 110.458 89.6118 109.85C89.6843 110.9 89.7483 111.954 89.8166 113.008C88.4983 112.525 87.1758 112.062 85.8533 111.587Z" fill="#F70000"/>
<path d="M39.2662 110.942C40.2475 111.088 41.2287 111.238 42.2099 111.388C42.2014 112.213 42.1886 113.038 42.1801 113.863C41.5615 113.704 40.9301 113.592 40.3243 113.396C40.0512 112.821 39.8038 112.238 39.5649 111.654L39.2662 110.942Z" fill="#F70000"/>
<path d="M59.3729 114.008C62.3678 113.854 65.3584 113.654 68.3192 113.179C68.8439 113.654 69.3729 114.129 69.8934 114.612C66.9838 115.162 64.0146 115.592 61.0453 115.537C60.384 115.146 59.9062 114.537 59.3729 114.008Z" fill="#F70000"/>
<path d="M64.3004 117.037C66.7577 116.725 69.2236 116.421 71.6596 115.967C71.0922 116.333 70.5461 116.733 70.0001 117.129C68.1016 117.154 66.1989 117.108 64.3004 117.037Z" fill="#F70000"/>
<path d="M46.9582 50.6791C48.1314 49.3625 49.7611 48.2541 51.6255 48.3708C53.7799 48.3166 55.6101 49.6916 56.7961 51.3375C57.1331 52.3375 57.3208 53.3791 57.5128 54.4166C58.5239 54.9041 59.5435 55.375 60.5717 55.8208C61.5657 53.9375 62.9906 52.2458 64.9616 51.2833C67.5256 50.3125 70.384 50.2541 72.9565 51.2375C74.6801 52.1791 76.0538 53.65 76.8217 55.4291C77.436 57.0166 77.6877 58.7208 77.5896 60.4125C77.4147 63.7208 76.8089 67.0291 75.5973 70.1333C75.1835 71.2916 74.3516 72.2333 73.4983 73.1125C74.2705 74.0666 75.0555 75.0083 75.7637 76.0083C75.9557 76.5875 76.1178 77.1791 76.2543 77.7708C74.535 80.0458 72.1715 81.7666 70.4522 84.05C71.3012 87.5791 73.0162 90.8583 73.6348 94.4375C75.3371 93.2875 77.1801 92.3541 79.0999 91.6125C79.8379 91.425 80.9898 90.8125 81.4249 91.775C81.9113 92.8291 82.6408 94.1083 82.1929 95.2625C81.2927 95.8416 80.256 96.1666 79.2876 96.625C77.9693 97.2916 76.7748 98.1625 75.5376 98.9666C75.8959 100.471 76.314 101.954 76.6809 103.458C76.8729 104.333 77.0819 105.221 77.0307 106.121C76.5401 106.712 75.7168 106.892 75.047 107.221C73.6562 107.621 72.2441 108.012 70.7893 108.112C69.7697 108.096 69.9275 106.942 69.8806 106.246C69.9872 104.4 71.4804 103.021 71.8388 101.246C71.7748 100.579 71.3482 100.021 71.0751 99.4291C70.2901 99.7041 69.5009 99.9708 68.7116 100.229C68.1272 102.775 67.9352 105.367 67.756 107.962C67.82 108.762 66.843 109.537 66.3268 108.604C66.1348 107.571 66.233 106.512 66.2244 105.471C64.6459 105.608 63.076 105.771 61.4975 105.854C60.0811 105.867 58.6647 105.762 57.2526 105.737C57.436 106.921 58.4471 107.612 59.1425 108.5C59.4412 109.337 59.4156 110.246 59.5137 111.121C61.5657 110.996 63.6178 110.85 65.657 110.579C69.4668 110.046 73.2381 109.237 76.9113 108.1C77.8157 107.821 78.7159 107.533 79.6033 107.217C80.7893 106.783 81.9668 106.325 83.1272 105.833C84.2407 105.354 85.3541 104.867 86.4591 104.358C87.3976 103.917 88.3021 103.408 89.2023 102.892C90.3072 102.246 91.4036 101.579 92.4787 100.883C93.6178 100.125 94.7441 99.3458 95.8447 98.5375C98.5282 96.4541 101.045 94.1583 103.264 91.6041C104.168 90.8833 104.8 89.0083 106.169 89.5291C106.224 90.1333 106.254 90.7375 106.254 91.3458C106.276 93.6333 106.195 95.95 105.563 98.1708C104.731 99.8666 102.995 100.917 101.617 102.162C99.2108 104.062 96.7236 105.9 94.0103 107.362C93.5282 107.604 93.0717 107.883 92.6238 108.183C91.6511 108.787 90.6357 109.333 89.6118 109.85C88.3746 110.458 87.1161 111.029 85.8533 111.587C85.0043 111.95 84.1468 112.283 83.2808 112.612C82.2441 113.004 81.1988 113.387 80.1536 113.758C80.128 114.887 80.0256 116.012 79.9232 117.137C79.8507 116.033 79.791 114.933 79.7483 113.829C77.1161 114.762 74.3772 115.337 71.6596 115.967C69.2236 116.421 66.7577 116.725 64.3004 117.037C62.7005 117.137 61.105 117.229 59.5051 117.292C59.4326 118.729 59.4113 120.383 58.0248 121.254C57.1715 121.396 56.2884 121.442 55.4437 121.267C54.8464 120.787 54.3089 120.246 53.7756 119.704C51.4676 119.342 48.9932 118.904 47.3166 117.162C47.0691 116.783 46.843 116.387 46.6169 116C46.2586 115.946 45.9045 115.892 45.5461 115.842C44.4028 115.679 43.2594 115.529 42.1161 115.392C42.1715 115.958 42.2313 116.525 42.2867 117.092L42.1929 116.992C41.6937 116.383 41.2031 115.771 40.721 115.15C38.9804 114.808 37.2398 114.479 35.5376 113.987C33.1784 113.117 33.6092 109.521 35.8618 108.796C36.7577 108.887 37.6493 109.025 38.5367 109.175C39.7739 109.392 41.0068 109.617 42.2483 109.787C43.3191 109.925 44.3985 110.017 45.4693 110.179C45.7253 110.225 46.2415 110.312 46.5017 110.354L47.0691 110.225C46.6553 109.354 46.1604 108.521 45.6912 107.679C44.3004 105.05 43.3021 102.246 42.4958 99.3958C42.419 98.9 42.3379 98.4041 42.2697 97.9083C42.1075 96.6375 41.9412 95.3666 41.8601 94.0875C42.0563 93.5916 42.2867 93.1125 42.5214 92.6416C43.3063 92.9041 44.0913 93.1666 44.8763 93.4333C45.3285 92.3291 45.7722 91.2208 46.2031 90.1125C45.1237 88.8291 43.2978 87.3958 44.0529 85.5291C45.4181 82.2208 47.3294 79.1583 49.3388 76.1958C50.3115 74.9 51.1092 73.3708 52.5299 72.4833C54.0657 71.8083 55.2987 73.1166 56.2074 74.1333C57.4787 73.2375 58.8993 72.5291 60.0512 71.4875C60.5248 70.7166 60.6912 69.8083 61.1476 69.0291C61.634 68.8541 62.1246 68.6958 62.628 68.5625C62.884 67.9041 63.1357 67.2458 63.3874 66.5875C62.3379 65.0291 61.3183 63.4541 60.3797 61.8291C59.535 60.2416 57.7859 59.4833 56.3268 58.5458C54.0785 64.0208 50.5504 68.9166 46.3652 73.1416C45.1621 74.5 44.1894 76.1166 43.8823 77.9041C43.605 79.3208 43.9036 80.9125 42.8712 82.0958C41.4761 80.4 40.6016 78.3625 40.1109 76.25C39.8464 74.8708 39.6929 73.4708 39.6801 72.0666C39.7483 68.475 41.2714 65.1458 43.1272 62.1166C45.3669 58.6125 44.5563 54.1041 46.9582 50.6791ZM53.8098 54.1958C53.9889 54.6041 54.1511 55.0208 54.3686 55.4125C56.0623 56.8166 58.1101 57.7208 59.9744 58.8791C60.0086 58.5333 60.0854 57.8375 60.1237 57.4916C58.7543 56.8666 57.4787 56.0333 56.058 55.5208C55.3413 55.0333 54.5862 54.5916 53.8098 54.1958ZM70.3456 59.4958C68.2637 60.2166 68.8098 63.1458 66.9753 64.0166C66.2458 63.3416 65.8746 62.1916 64.8592 61.8916C63.6348 61.9958 63.4215 63.5 63.7586 64.4166C64.2449 65.5291 65.6314 65.1875 66.6084 65.3333C66.9113 66.7333 66.89 68.3291 67.9565 69.4375C68.8311 70.375 69.8336 71.5166 71.2586 71.475C71.9924 71.4291 73.0333 71.7208 73.4087 70.8875C74.2449 69.4708 74.6715 67.875 75.128 66.3166C74.5606 65.8416 73.9932 65.3291 73.9548 64.5458C74.3302 64.5041 75.0854 64.4166 75.465 64.375C75.721 62.7916 75.8618 61.1875 75.9813 59.5875C74.1212 59.3958 72.1886 59.0416 70.3456 59.4958ZM63.9975 69.7791C65.512 70.65 66.8345 71.8083 68.3703 72.6458C67.9181 71.3041 66.6084 70.5333 65.9173 69.3416C65.4864 68.475 65.3115 67.5166 65.0598 66.5958C64.6673 67.6416 64.3004 68.7041 63.9975 69.7791ZM63.7116 71.5208C63.6775 71.8416 63.6092 72.475 63.5751 72.7916C65.1877 73.9125 66.6553 75.2125 68.0717 76.5583C68.1741 76.3291 68.3789 75.875 68.4813 75.6458C67.2569 73.9208 65.5376 72.6 63.7116 71.5208ZM58.8012 76.5833C60.0854 77.3416 61.57 77.775 62.7475 78.7041C63.9121 80.0541 63.5666 82.0666 62.8925 83.5666C61.6596 86.1916 60.3115 88.7625 59.0273 91.3666C57.8541 93.4125 59.6033 95.4875 59.7526 97.5708C62.5939 97.8166 65.7168 96.9166 68.2978 98.4416C68.8908 98.8083 69.6331 98.4083 70.0256 97.9458C71.4804 96.475 72.5 94.2125 71.5017 92.2333C69.6587 87.7375 68.5623 83.0041 67.2825 78.3458C66.1092 76.4791 64.1383 75.225 62.3848 73.9083C61.1178 74.7041 59.8976 75.575 58.8012 76.5833ZM55.593 76.1083C54.919 77.2916 53.4429 78.525 54.2321 79.9916C55.4437 82.1791 58.3319 82.4125 60.5973 82.5708C61.0154 81.7708 61.6425 81.025 61.7833 80.1125C61.3396 79.4875 60.5248 79.2875 59.8848 78.925C58.2893 78.2416 56.9454 77.1541 55.593 76.1083ZM51.3951 85.2416C52.9949 87.0291 55.6826 87.0708 57.9266 87.1C58.4941 86.1125 59.0657 85.125 59.6161 84.1291C56.9241 83.9583 54.5222 82.7625 52.4019 81.2125C51.4249 82.2416 50.3072 83.9208 51.3951 85.2416ZM48.797 89.8416C50.4053 91.1375 52.6024 91.5625 54.6331 91.725C55.8959 91.2375 56.2372 89.7458 56.9028 88.7166C54.1852 88.7 51.6852 87.6375 49.4625 86.1916C48.6562 87.1375 47.6237 88.7875 48.797 89.8416ZM102.21 95.2083C101.924 96.1416 101.852 97.1583 101.229 97.9625L101.135 98.1458L100.896 98.1083C98.5282 100.629 95.5802 102.508 92.7688 104.504C91.6468 105.083 90.5546 105.704 89.4668 106.337C87.4275 107.392 85.3243 108.333 83.1912 109.2C82.0606 109.692 80.8106 109.921 79.7483 110.546L79.6929 110.817L79.4156 110.725C75.721 111.529 72.0947 112.7 68.3191 113.179C65.3584 113.654 62.3678 113.854 59.3729 114.008C59.9062 114.537 60.384 115.146 61.0452 115.537C64.0145 115.592 66.9838 115.162 69.8934 114.612L69.9446 114.658C73.3021 114.117 76.5828 113.221 79.8251 112.217C80.9727 111.796 82.1203 111.362 83.2637 110.921C85.3968 110.125 87.4488 109.142 89.5094 108.179L89.5052 108.037C90.6272 107.521 91.7279 106.958 92.7944 106.337C95.192 104.892 97.5982 103.412 99.6801 101.546C100.742 101.112 101.446 100.204 102.317 99.5125C102.577 99.1958 103.451 99.0166 103.14 98.4791L103.515 98.55C104.552 96.7083 104.625 94.5625 104.782 92.5208C103.882 93.3708 102.888 94.1666 102.21 95.2083ZM47.3678 94.3833C48.2295 95.3041 49.3729 95.9208 50.3627 96.7083C50.8703 95.8041 51.3737 94.9 51.89 94C50.4053 93.7625 48.4002 92.7416 47.3678 94.3833ZM43.5495 94.5708C43.7202 97.8916 44.4795 101.192 45.8959 104.217C46.3951 105.758 47.2526 107.15 48.076 108.542C49.4881 108.337 50.913 108.304 52.3336 108.429C51.5913 105.937 51.0666 103.387 50.7167 100.817C50.5674 99.4958 49.8208 98.2291 48.6732 97.5041C47.8669 96.775 46.9539 96.1708 46.0069 95.6291C45.1877 95.275 44.3686 94.9208 43.5495 94.5708ZM51.5316 98.3416C52.0478 99.3833 52.3123 100.512 52.5982 101.633C52.9224 100.708 53.2509 99.7875 53.558 98.8625C54.1425 98.3875 54.7398 97.9291 55.3499 97.4833C54.7995 96.45 54.1852 95.4583 53.541 94.4833C52.6877 95.6666 51.8772 96.9125 51.5316 98.3416ZM58.8311 99.2125C58.797 99.35 58.7244 99.6208 58.6903 99.7541C58.4642 100.925 58.2381 102.096 58.0418 103.271C58.3362 103.512 58.6348 103.754 58.9335 103.996C61.4292 104.292 63.9505 104.2 66.4335 103.829C66.6724 102.471 66.9113 101.117 67.1033 99.7541C66.9625 99.6083 66.6767 99.3166 66.5359 99.1666C63.9676 99.1708 61.3951 99.0375 58.8311 99.2125ZM55.7423 109.2C55.1877 111.058 55.2219 113.079 55.4138 114.996C55.9557 115.846 57.0521 115.8 57.9394 115.979C57.9394 114.858 57.9394 113.733 57.9352 112.612C57.8499 111.342 58.2295 109.937 57.6109 108.762C57.1673 108.708 56.2756 108.596 55.8319 108.537C55.8106 108.704 55.7679 109.033 55.7423 109.2ZM48.5282 110.104C48.3575 112.012 48.3063 113.925 48.2765 115.842C48.8396 116.296 49.3217 116.937 50.0598 117.117C51.2244 117.733 52.5342 117.921 53.8311 118.046C53.8311 117.817 53.8311 117.362 53.8311 117.137C53.8652 114.8 53.9889 112.392 53.0589 110.183C51.5657 109.908 50.0342 109.817 48.5282 110.104ZM35.8831 110.412C35.849 111.092 35.8191 111.771 35.7935 112.45C37.2867 112.833 38.7842 113.225 40.3243 113.396C40.9301 113.592 41.5615 113.704 42.1801 113.862C43.7842 114.412 44.0188 112.733 44.5435 111.704C43.7628 111.596 42.9864 111.487 42.2099 111.387C41.2287 111.237 40.2475 111.087 39.2662 110.942L39.5649 111.654C39.4838 111.467 39.3302 111.092 39.2492 110.908C38.1314 110.717 37.0094 110.55 35.8831 110.412Z" fill="#1D1212"/>
<path d="M70.5418 64.3458C71.2799 64.1375 72.7219 64.3583 72.436 65.4083C71.9881 66.6625 69.2577 65.475 70.5418 64.3458Z" fill="#1D1212"/>
<path d="M58.0718 79.7167C59.3431 78.8084 59.8678 81.4667 58.5112 81.1292C57.7347 81.2834 57.3764 79.9 58.0718 79.7167Z" fill="#1D1212"/>
<path d="M54.6033 84.7458C55.1323 84.6374 55.768 84.0666 56.2244 84.6458C56.8516 85.3208 55.8618 86.2833 55.1366 85.7833C54.9446 85.4458 54.7654 85.1 54.6033 84.7458Z" fill="#1D1212"/>
<path d="M52.5042 89.9667C52.3037 89.1125 53.1868 89.2167 53.7756 89.175C53.9121 89.6709 53.9846 90.1792 54.0657 90.6917C53.5793 90.5459 52.2696 90.8125 52.5042 89.9667Z" fill="#1D1212"/>
<path d="M63.0632 102.133C62.3209 101.458 63.6178 100.971 64.0572 100.621C64.1638 100.904 64.3771 101.467 64.4838 101.746C64.5222 102.417 63.3575 102.838 63.0632 102.133Z" fill="#1D1212"/>
<path d="M62.6494 107.308C63.605 107.583 64.1297 108.329 64.3644 109.225C63.8183 109.167 63.2765 109.092 62.7389 109C62.5598 108.454 62.6494 107.867 62.6494 107.308Z" fill="#1D1212"/>
</svg>
